<?xml version="1.0" encoding="utf-8"?>
<!-- Svg Vector Icons : http://www.onlinewebfonts.com/icon -->
<!DOCTYPE svg PUBLIC "-//W3C//DTD SVG 1.1//EN" "http://www.w3.org/Graphics/SVG/1.1/DTD/svg11.dtd">
<svg version="1.1" xmlns="http://www.w3.org/2000/svg" xmlns:xlink="http://www.w3.org/1999/xlink" x="0px" y="0px" viewBox="0 0 1000 1000" enable-background="new 0 0 1000 1000" xml:space="preserve">
<g><g transform="translate(0.000000,511.000000) scale(0.100000,-0.100000)"><path d="M7765.6,3526.7l-799-799l-53,48.5l-50.8,48.6H3682.3H501.7l-200.9-209.7L100,2403.3v-2205v-2205l200.9-211.9l200.9-209.7h637.9c350.9,0,637.9-6.6,637.9-15.4c0-11-311.2-326.7-688.7-706.3L398-3840.9l132.4-132.4l132.4-132.4L4750.6-18l4089.9,4089.9l-125.8,125.8c-70.6,70.6-132.4,128-139.1,128C8569.1,4325.8,8204.9,3966,7765.6,3526.7z M4437.2,198.3L2185.8-2053.1h-761.5H665l-94.9,92.7l-94.9,92.7V196.1v2063.7l92.7,94.9l92.7,94.9h3015h3012.8L4437.2,198.3z"/><path d="M8608.8,2182.6c-690.8-302.4-1280.2-556.2-1306.7-562.8c-48.6-13.2-50.8-8.8-50.8,158.9V1953l-187.6-187.6l-189.8-189.8l6.6-278.1l6.6-280.3l1313.3,571.7c721.8,315.6,1315.5,573.9,1319.9,573.9c2.2,0,4.4-882.9,4.4-1964.4c0-1079.3-4.4-1964.4-8.8-1964.4c-4.4,0-598.1,258.2-1319.9,571.7L6887.2-622.8l-6.6-631.2l-4.4-631.3l-81.7-83.9l-81.7-83.9H4977.9H3245.3l-187.6-187.6L2870-2428.3h1997.5h1997.5l194.2,207.5l192,209.7v397.3c0,284.7,6.6,399.5,24.3,399.5c15.4,0,604.8-253.8,1313.3-562.8c706.3-309,1291.2-562.8,1297.9-562.8c6.6,0,13.2,1143.3,13.2,2538.3c0,1397.2-6.6,2538.3-15.5,2538.3C9873.5,2734.4,9301.9,2487.2,8608.8,2182.6z"/></g></g>
</svg>